# xmcd
#
# Track frame offsets:
#  150
#  11589
#  21377
#  34612
#  46134
#  58019
#  69067
#  78555
#  90633
#  102759
#  115709
#  126270
#  138704
#  150674
#  162833
#  175323
#  187594
#  201675
#  213925
#  225061
#
# Disc length: 3143 seconds
#
# Revision: 0
# Processed by: cddbd v1.5.2PL0 Copyright (c) Steve Scherf et al.
# Submitted via: Collectorz.com_Music_Collector 6.11
#
DISCID=fd0c4514
DTITLE=Guy Mitchell - Guy Mitchell
DYEAR=2000
DGENRE=Country - Pop - Rock and Roll
TTITLE0=Heartaches By The Number
TTITLE1=Rock A Billy
TTITLE2=She Wears Red Feathers
TTITLE3=Pretty Little Black-Eyed Susie
TTITLE4=Feetup
TTITLE5=Cloud Lucky Seven
TTITLE6=Knee Deep In The Blues
TTITLE7=Chicka Boom
TTITLE8=The Cuff Of My Shirt
TTITLE9=My Shoes Keep Walking Back To You
TTITLE10=Sippin' Soda
TTITLE11=Side By Side
TTITLE12=My Heart Cries For You
TTITLE13=The Roving Kind
TTITLE14=Pittsburgh Pennsylvania
TTITLE15=Music, Music, Music
TTITLE16=Sparrow In The Tree Top
TTITLE17=My Truly, Truly Fair
TTITLE18=Call Rosie On The Phone
TTITLE19=Singing The Blues
EXTD=
EXTT0=
EXTT1=
EXTT2=
EXTT3=
EXTT4=
EXTT5=
EXTT6=
EXTT7=
EXTT8=
EXTT9=
EXTT10=
EXTT11=
EXTT12=
EXTT13=
EXTT14=
EXTT15=
EXTT16=
EXTT17=
EXTT18=
EXTT19=
PLAYORDER=
